            <svg
              xmlns="http://www.w3.org/2000/svg"
              width="56"
              height="56"
              viewBox="0 0 56 56"
              fill="none"
            >
              <rect
                width="56"
                height="56"
                rx="8"
                fill="#00ABED"
                fill-opacity="0.08"
              />
              <g clip-path="url(#clip0_1600_18545)">
                <path
                  fill-rule="evenodd"
                  clip-rule="evenodd"
                  d="M33.5743 13.045C34.6693 11.6517 36.7579 11.6517 37.853 13.045C38.2599 13.5627 38.5417 14.095 38.7721 14.5302C38.816 14.6132 38.8581 14.6926 38.8987 14.7677C39.1616 15.253 39.4233 15.6805 39.8711 16.1283C40.3189 16.5759 40.7463 16.8379 41.2315 17.1007C41.3067 17.1414 41.3863 17.1835 41.469 17.2274C41.9042 17.4577 42.4366 17.7396 42.9543 18.1464C44.3477 19.2413 44.3477 21.3301 42.9543 22.4251C42.4368 22.8319 41.9045 23.1137 41.4693 23.3441C41.3863 23.388 41.3067 23.43 41.2318 23.4707C40.7465 23.7336 40.3189 23.9955 39.8711 24.4432C39.4235 24.8909 39.1616 25.3184 38.8987 25.8037C38.8581 25.8788 38.816 25.9582 38.7721 26.0411C38.5417 26.4763 38.2599 27.0088 37.853 27.5264C36.7582 28.9198 34.6693 28.9198 33.5744 27.5264C33.1676 27.0088 32.8858 26.4764 32.6554 26.0412C32.6115 25.9583 32.5694 25.8788 32.5287 25.8037C32.2659 25.3184 32.004 24.8909 31.5563 24.4432C31.1086 23.9955 30.681 23.7336 30.1957 23.4707C30.1206 23.43 30.0412 23.388 29.9582 23.3441C29.523 23.1137 28.9907 22.8319 28.473 22.4251C27.0797 21.3301 27.0797 19.2413 28.473 18.1464C28.9907 17.7396 29.523 17.4577 29.9582 17.2274C30.0411 17.1835 30.1206 17.1414 30.1957 17.1007C30.6809 16.8379 31.1085 16.5759 31.5562 16.1283C32.0039 15.6805 32.2658 15.253 32.5286 14.7677C32.5693 14.6926 32.6113 14.6132 32.6552 14.5303C32.8856 14.0951 33.1675 13.5627 33.5743 13.045ZM28.4809 14.7827C28.0297 15.029 27.3297 15.411 26.7076 15.8999C24.7599 17.4306 24.1437 19.9216 24.8592 22.06H15.9661C15.8955 22.3219 15.845 22.5912 15.8163 22.8661C15.5991 24.9488 15.4286 27.0354 15.4286 29.1417C15.4286 31.248 15.5991 33.3345 15.8163 35.4171C16.0731 37.8795 18.0824 39.8933 20.5744 40.1639C22.6639 40.3911 24.7526 40.5714 26.8601 40.5714C28.9677 40.5714 31.0563 40.3911 33.1459 40.1641C35.6377 39.8933 37.6471 37.8795 37.904 35.4174C38.0665 33.8578 38.2032 32.2954 38.2615 30.7213C38.2965 29.7752 39.0919 29.0366 40.0379 29.0717C40.9842 29.1067 41.7227 29.9021 41.6878 30.8482C41.6254 32.5321 41.48 34.18 41.3141 35.773C40.8878 39.8587 37.5973 43.1291 33.5162 43.5726C31.387 43.8039 29.1537 44 26.8601 44C24.5666 44 22.3332 43.8039 20.204 43.5723C16.1229 43.1289 12.8323 39.8585 12.4062 35.7728C12.1847 33.6483 12 31.4245 12 29.1417C12 26.8588 12.1847 24.635 12.4062 22.5104C12.8323 18.4247 16.1229 15.1543 20.2039 14.7109C22.3334 14.4795 24.5667 14.2836 26.8601 14.2836C27.6575 14.2836 28.4476 14.3073 29.2287 14.3479C29.0943 14.4365 28.9139 14.5438 28.6625 14.6832C28.608 14.7134 28.5471 14.7466 28.4809 14.7827Z"
                  fill="#00ABED"
                />
              </g>
              <defs>
                <clipPath id="clip0_1600_18545">
                  <rect
                    width="32"
                    height="32"
                    fill="white"
                    transform="translate(12 12)"
                  />
                </clipPath>
              </defs>
            </svg>