            <svg
              xmlns="http://www.w3.org/2000/svg"
              width="56"
              height="56"
              viewBox="0 0 56 56"
              fill="none"
            >
              <rect
                width="56"
                height="56"
                rx="8"
                fill="#00ABED"
                fill-opacity="0.08"
              />
              <g clip-path="url(#clip0_1600_18558)">
                <path
                  fill-rule="evenodd"
                  clip-rule="evenodd"
                  d="M18.6911 18.6911C17.0105 20.3716 15.9989 22.9544 15.9989 26.5703C15.9989 30.1862 17.0105 32.769 18.6911 34.4496C20.3716 36.1301 22.9544 37.1417 26.5703 37.1417C30.1862 37.1417 32.769 36.1301 34.4496 34.4496C36.1301 32.769 37.1417 30.1862 37.1417 26.5703C37.1417 22.9544 36.1301 20.3716 34.4496 18.6911C32.769 17.0105 30.1862 15.9989 26.5703 15.9989C22.9544 15.9989 20.3716 17.0105 18.6911 18.6911ZM16.2667 16.2667C18.7633 13.7701 22.3233 12.5703 26.5703 12.5703C30.8173 12.5703 34.3773 13.7701 36.8739 16.2667C39.3705 18.7633 40.5703 22.3233 40.5703 26.5703C40.5703 29.8907 39.8371 32.7912 38.3239 35.0919L42.7575 39.5255C43.6501 40.4181 43.6501 41.8654 42.7575 42.758C41.8649 43.6505 40.4176 43.6505 39.5251 42.758L35.0912 38.3244C32.7906 39.8371 29.8904 40.5703 26.5703 40.5703C22.3233 40.5703 18.7633 39.3705 16.2667 36.8739C13.7701 34.3773 12.5703 30.8173 12.5703 26.5703C12.5703 22.3233 13.7701 18.7633 16.2667 16.2667ZM31.6594 22.2244C31.975 21.5013 32.8169 21.1709 33.54 21.4865C34.2632 21.802 34.5936 22.644 34.2781 23.3671L32.9687 22.7958C34.2781 23.3671 34.2782 23.367 34.2781 23.3671L34.2778 23.3677L34.2773 23.3689L34.2756 23.3728L34.2694 23.3869L34.2464 23.4392L34.1603 23.6326C34.0863 23.7977 33.9801 24.0322 33.8504 24.3117C33.5918 24.8688 33.2358 25.6136 32.8516 26.3497C32.4746 27.0724 32.0429 27.8403 31.6324 28.4148C31.4361 28.6894 31.1847 29.0063 30.8922 29.2464C30.7475 29.3651 30.5136 29.5319 30.2022 29.627C29.8558 29.733 29.376 29.7555 28.9102 29.4893C28.5792 29.3002 28.2089 29.0729 27.8402 28.8465L27.6043 28.7019C27.147 28.4219 26.6846 28.1433 26.2281 27.8939C25.4415 27.4641 24.8414 27.2204 24.4385 27.1384C24.381 27.2029 24.3096 27.2905 24.2256 27.4056C23.9082 27.8407 23.5553 28.4657 23.2136 29.1497C22.8777 29.822 22.5774 30.5007 22.3597 31.0155C22.2514 31.2717 22.1646 31.4847 22.1053 31.6326C22.0756 31.7065 22.0529 31.764 22.0379 31.8024L22.0211 31.8452L22.0173 31.8551L22.0165 31.8571C21.7333 32.5935 20.9068 32.9609 20.1704 32.6777C19.434 32.3945 19.0666 31.568 19.3498 30.8316L20.6067 31.315C19.3498 30.8316 19.3497 30.8318 19.3498 30.8316L19.3501 30.8308L19.3506 30.8295L19.3522 30.8254L19.3577 30.811L19.378 30.7591C19.3955 30.7145 19.4209 30.6502 19.4534 30.5692C19.5183 30.4072 19.612 30.1776 19.7282 29.9026C19.9598 29.3549 20.2858 28.6171 20.6576 27.8728C21.0236 27.1403 21.4599 26.3488 21.9176 25.7215C22.1443 25.4108 22.4141 25.0874 22.7227 24.828C23.0017 24.5935 23.5022 24.2496 24.1657 24.2496C25.3523 24.2496 26.6297 24.8576 27.5979 25.3865C28.1205 25.672 28.6338 25.9822 29.096 26.2651L29.35 26.4208L29.4796 26.5003C29.7337 26.1085 30.0242 25.5922 30.3186 25.028C30.6749 24.3453 31.0106 23.6437 31.2587 23.1089C31.3824 22.8425 31.4833 22.6197 31.553 22.4641L31.6329 22.2846L31.6532 22.2385L31.6581 22.2273L31.6592 22.2249L31.6594 22.2244ZM24.5867 26.9958C24.5868 26.9953 24.5816 26.9986 24.5711 27.007C24.5814 27.0005 24.5867 26.9963 24.5867 26.9958Z"
                  fill="#00ABED"
                />
              </g>
              <defs>
                <clipPath id="clip0_1600_18558">
                  <rect
                    width="32"
                    height="32"
                    fill="white"
                    transform="translate(12 12)"
                  />
                </clipPath>
              </defs>
            </svg>