            <svg
              xmlns="http://www.w3.org/2000/svg"
              width="56"
              height="56"
              viewBox="0 0 56 56"
              fill="none"
            >
              <rect
                width="56"
                height="56"
                rx="8"
                fill="#00ABED"
                fill-opacity="0.08"
              />
              <g clip-path="url(#clip0_1600_18571)">
                <path
                  fill-rule="evenodd"
                  clip-rule="evenodd"
                  d="M28 12C26.3268 12 24.8582 12.4741 23.809 13.5233C22.7598 14.5725 22.2857 16.0411 22.2857 17.7143C22.2857 19.3875 22.7598 20.8561 23.809 21.9053C24.4812 22.5775 25.3256 23.0136 26.2857 23.2403V27.4391C24.4202 27.462 22.5538 27.5222 20.684 27.6197C17.3641 27.7929 14.8571 30.5667 14.8571 33.8254V35.1065C14.2398 35.304 13.6856 35.6238 13.2262 36.0832C12.3713 36.9383 12 38.1211 12 39.4286C12 40.736 12.3713 41.9189 13.2262 42.7739C14.0811 43.6288 15.2639 44 16.5714 44C17.8789 44 19.0618 43.6288 19.9167 42.7739C20.7716 41.9189 21.1429 40.736 21.1429 39.4286C21.1429 38.1211 20.7716 36.9383 19.9167 36.0832C19.4572 35.6238 18.9031 35.304 18.2857 35.1065V33.8254C18.2857 32.3248 19.4296 31.1184 20.8626 31.0436C22.6729 30.9492 24.4797 30.8906 26.2857 30.8679V35.1065C25.6684 35.304 25.1142 35.6238 24.6547 36.0832C23.7998 36.9383 23.4286 38.1211 23.4286 39.4286C23.4286 40.736 23.7998 41.9189 24.6547 42.7739C25.5096 43.6288 26.6925 44 28 44C29.3075 44 30.4904 43.6288 31.3453 42.7739C32.2002 41.9189 32.5714 40.736 32.5714 39.4286C32.5714 38.1211 32.2002 36.9383 31.3453 36.0832C30.8858 35.6238 30.3316 35.304 29.7143 35.1065V30.8679C31.5203 30.8906 33.3271 30.9492 35.1374 31.0436C36.5705 31.1184 37.7143 32.3248 37.7143 33.8254V35.1065C37.0969 35.304 36.5429 35.6238 36.0832 36.0832C35.2283 36.9383 34.8571 38.1211 34.8571 39.4286C34.8571 40.736 35.2283 41.9189 36.0832 42.7739C36.9383 43.6288 38.1211 44 39.4286 44C40.736 44 41.9189 43.6288 42.7739 42.7739C43.6288 41.9189 44 40.736 44 39.4286C44 38.1211 43.6288 36.9383 42.7739 36.0832C42.3143 35.6238 41.7602 35.304 41.1429 35.1065V33.8254C41.1429 30.5667 38.6359 27.7929 35.3159 27.6197C33.4462 27.5222 31.5798 27.462 29.7143 27.4391V23.2403C30.6744 23.0136 31.5188 22.5775 32.191 21.9053C33.2402 20.8561 33.7143 19.3875 33.7143 17.7143C33.7143 16.0411 33.2402 14.5725 32.191 13.5233C31.1418 12.4741 29.6732 12 28 12Z"
                  fill="#00ABED"
                />
              </g>
              <defs>
                <clipPath id="clip0_1600_18571">
                  <rect
                    width="32"
                    height="32"
                    fill="white"
                    transform="translate(12 12)"
                  />
                </clipPath>
              </defs>
            </svg>