<?xml version="1.0" standalone="no"?>
            <svg
              xmlns="http://www.w3.org/2000/svg"
              width="56"
              height="56"
              viewBox="0 0 56 56"
              fill="none"
            >
              <rect
                width="56"
                height="56"
                rx="8"
                fill="#00ABED"
                fill-opacity="0.08"
              />
              <g clip-path="url(#clip0_16660_6035)">
                <path
                  fill-rule="evenodd"
                  clip-rule="evenodd"
                  d="M17.0862 16.0677C19.797 13.3549 23.7094 12 28.5107 12C33.3121 12 37.2245 13.3549 39.9353 16.0677C42.646 18.7803 43.9998 22.6951 43.9998 27.4993C43.9998 32.3035 42.646 36.2183 39.9353 38.9307C37.2245 41.6437 33.3121 42.9986 28.5107 42.9986C25.8622 42.9986 23.4855 42.5874 21.4274 41.7605L15.0801 43.8777C13.2225 44.4974 11.4752 42.6967 12.1428 40.8594L14.3454 34.7977C13.4612 32.6905 13.0217 30.2403 13.0217 27.4993C13.0217 22.6951 14.3755 18.7803 17.0862 16.0677ZM25.7275 22.8771C25.7275 22.0881 25.0879 21.4485 24.2989 21.4485C23.5099 21.4485 22.8703 22.0881 22.8703 22.8771V24.02C22.8703 24.8089 23.5099 25.4485 24.2989 25.4485C25.0879 25.4485 25.7275 24.8089 25.7275 24.02V22.8771ZM34.4418 22.8771C34.4418 22.0881 33.8022 21.4485 33.0132 21.4485C32.2242 21.4485 31.5846 22.0881 31.5846 22.8771V24.02C31.5846 24.8089 32.2242 25.4485 33.0132 25.4485C33.8022 25.4485 34.4418 24.8089 34.4418 24.02V22.8771ZM35.2293 27.8863C30.8182 27.4063 26.4939 27.4063 22.0829 27.8863C21.2143 27.9808 20.5712 28.7181 20.5712 29.5804V29.9625C20.5712 30.0186 20.5795 30.0744 20.5957 30.1281C21.11 31.8264 22.0771 33.1659 23.4638 34.0741C24.8439 34.9778 26.5993 35.4286 28.6561 35.4286C30.7128 35.4286 32.4682 34.9778 33.8483 34.0741C35.235 33.1659 36.2021 31.8264 36.7164 30.1281C36.7326 30.0744 36.7408 30.0186 36.7408 29.9625V29.5804C36.7408 28.7181 36.0978 27.9808 35.2293 27.8863Z"
                  fill="#00ABED"
                />
              </g>
              <defs>
                <clipPath id="clip0_16660_6035">
                  <rect
                    width="32"
                    height="32"
                    fill="white"
                    transform="translate(12 12)"
                  />
                </clipPath>
              </defs>
            </svg>